# xmcd CD database file
#
# Track frame offsets:
#	150
#	17967
#	31727
#	45907
#	61146
#	78342
#	96423
#	116459
#	133707
#	149089
#	162903
#	183434
#	204477
#	218766
#
# Disc length: 3133 seconds
#
# Revision: 0
# Processed by: cddbd v1.5.2PL0 Copyright (c) Steve Scherf et al.
# Submitted via: CDex 1.51
#
DISCID=bf0c3b0e
DTITLE=Ben Webster - Memories of you
DYEAR=2007
DGENRE=Jazz
TTITLE0=Chelsea Bridge
TTITLE1=Tenderly
TTITLE2=You're Mine, You!
TTITLE3=Cotton Tail
TTITLE4=Memories Of You
TTITLE5=Almost Like Being In Love
TTITLE6=After You've Gone
TTITLE7=That's All
TTITLE8=My Funny Valentine
TTITLE9=I Surrender Dear
TTITLE10=Bounce Blues
TTITLE11=Willow Weep For Me
TTITLE12=Tea For Two
TTITLE13=Danny Boy
EXTD=YEAR: 2007
EXTT0=
EXTT1=
EXTT2=
EXTT3=
EXTT4=
EXTT5=
EXTT6=
EXTT7=
EXTT8=
EXTT9=
EXTT10=
EXTT11=
EXTT12=
EXTT13=
PLAYORDER=
